<svg id="svg" version="1.1" xmlns="http://www.w3.org/2000/svg" xmlns:xlink="http://www.w3.org/1999/xlink" width="400" height="400.383877159309" viewBox="0, 0, 400,400.383877159309"><g id="svgg"><path id="path0" d="M0.000 200.192 L 0.000 400.384 200.000 400.384 L 400.000 400.384 400.000 200.192 L 400.000 0.000 200.000 0.000 L 0.000 0.000 0.000 200.192 M323.087 95.860 C 325.173 96.975,327.247 99.439,327.798 101.456 C 328.126 102.655,328.212 123.330,328.132 181.796 L 328.023 260.521 326.861 262.400 C 326.141 263.565,324.985 264.721,323.820 265.441 L 321.941 266.603 277.094 266.703 L 232.246 266.804 232.246 272.941 L 232.246 279.079 237.760 279.079 C 248.804 279.079,254.043 281.716,257.538 289.034 L 258.925 291.939 259.059 298.560 L 259.193 305.182 200.000 305.182 L 140.807 305.182 140.941 298.560 L 141.075 291.939 142.462 289.034 C 145.957 281.716,151.196 279.079,162.240 279.079 L 167.754 279.079 167.754 272.941 L 167.754 266.804 122.906 266.703 L 78.059 266.603 76.180 265.441 C 75.015 264.721,73.859 263.565,73.139 262.400 L 71.977 260.521 71.868 181.796 C 71.788 123.330,71.874 102.655,72.202 101.456 C 72.953 98.708,75.641 96.107,78.692 95.175 C 79.222 95.013,134.069 94.910,200.576 94.945 L 321.497 95.010 323.087 95.860 M79.259 98.295 C 77.656 98.763,75.710 100.764,75.226 102.442 C 74.948 103.403,74.858 128.161,74.935 181.796 L 75.048 259.753 76.154 261.203 C 78.201 263.887,75.023 263.724,125.324 263.724 L 170.825 263.724 170.825 272.937 L 170.825 282.150 163.804 282.150 C 149.287 282.150,143.954 286.492,143.954 298.313 L 143.954 302.111 200.000 302.111 L 256.046 302.111 256.046 298.313 C 256.046 286.492,250.713 282.150,236.196 282.150 L 229.175 282.150 229.175 272.937 L 229.175 263.724 274.676 263.724 C 324.977 263.724,321.799 263.887,323.846 261.203 L 324.952 259.753 325.051 181.443 L 325.149 103.133 324.352 101.485 C 323.882 100.516,322.972 99.475,322.142 98.959 L 320.729 98.081 200.576 98.018 C 131.804 97.982,79.925 98.101,79.259 98.295 M272.841 109.691 C 273.616 110.706,273.513 125.851,272.723 126.978 C 272.009 127.998,270.418 128.103,269.416 127.196 C 268.266 126.155,268.353 110.533,269.515 109.372 C 270.424 108.463,272.020 108.617,272.841 109.691 M298.498 119.191 C 299.519 120.750,298.967 121.597,293.130 127.415 C 287.203 133.323,285.917 134.050,284.591 132.236 C 283.392 130.598,283.861 129.841,289.736 123.933 C 295.971 117.662,297.097 117.053,298.498 119.191 M137.813 122.397 L 138.964 123.248 140.114 122.397 C 141.926 121.057,145.989 120.860,145.810 122.120 C 145.701 122.893,145.411 123.064,143.921 123.235 C 142.952 123.347,141.700 123.739,141.138 124.108 L 140.115 124.778 140.115 129.928 L 140.115 135.078 141.555 135.198 C 143.806 135.384,143.917 137.044,141.677 137.044 L 140.115 137.044 140.115 142.397 C 140.115 147.493,140.156 147.778,140.968 148.347 C 141.733 148.882,148.866 148.944,209.490 148.944 L 277.159 148.944 277.159 150.288 L 277.159 151.631 199.424 151.631 L 121.689 151.631 121.689 150.288 L 121.689 148.944 128.910 148.944 C 138.308 148.944,137.812 149.320,137.812 142.212 L 137.812 137.044 136.250 137.044 C 134.010 137.044,134.121 135.384,136.372 135.198 L 137.812 135.078 137.812 129.928 L 137.812 124.778 136.789 124.108 C 136.227 123.739,134.975 123.347,134.006 123.235 C 132.516 123.064,132.226 122.893,132.117 122.120 C 131.938 120.860,136.001 121.057,137.813 122.397 M114.395 152.591 L 114.395 160.845 106.142 160.845 L 97.889 160.845 97.889 152.591 L 97.889 144.338 106.142 144.338 L 114.395 144.338 114.395 152.591 M305.599 146.674 C 306.508 147.583,306.355 149.179,305.280 150.000 C 304.265 150.775,289.121 150.672,287.993 149.882 C 286.973 149.168,286.869 147.577,287.775 146.575 C 288.816 145.426,304.438 145.513,305.599 146.674 M100.192 152.591 L 100.192 158.541 106.142 158.541 L 112.092 158.541 112.092 152.591 L 112.092 146.641 106.142 146.641 L 100.192 146.641 100.192 152.591 M109.021 152.783 L 109.021 155.470 106.334 155.470 L 103.647 155.470 103.647 152.783 L 103.647 150.096 106.334 150.096 L 109.021 150.096 109.021 152.783 M125.152 154.717 C 125.995 156.292,124.635 157.767,122.860 157.204 C 121.054 156.631,121.671 153.935,123.608 153.935 C 124.347 153.935,124.877 154.203,125.152 154.717 M130.910 154.717 C 131.753 156.292,130.394 157.767,128.618 157.204 C 126.812 156.631,127.429 153.935,129.367 153.935 C 130.105 153.935,130.635 154.203,130.910 154.717 M136.668 154.717 C 137.511 156.292,136.152 157.767,134.377 157.204 C 132.571 156.631,133.188 153.935,135.125 153.935 C 135.863 153.935,136.393 154.203,136.668 154.717 M142.426 154.717 C 143.269 156.292,141.910 157.767,140.135 157.204 C 138.329 156.631,138.946 153.935,140.883 153.935 C 141.622 153.935,142.151 154.203,142.426 154.717 M148.184 154.717 C 149.027 156.292,147.668 157.767,145.893 157.204 C 144.087 156.631,144.704 153.935,146.641 153.935 C 147.380 153.935,147.909 154.203,148.184 154.717 M153.943 154.717 C 154.785 156.292,153.426 157.767,151.651 157.204 C 149.845 156.631,150.462 153.935,152.399 153.935 C 153.138 153.935,153.668 154.203,153.943 154.717 M159.701 154.717 C 160.544 156.292,159.184 157.767,157.409 157.204 C 155.603 156.631,156.220 153.935,158.157 153.935 C 158.896 153.935,159.426 154.203,159.701 154.717 M165.459 154.717 C 166.302 156.292,164.942 157.767,163.167 157.204 C 161.361 156.631,161.978 153.935,163.916 153.935 C 164.654 153.935,165.184 154.203,165.459 154.717 M171.217 154.717 C 172.060 156.292,170.701 157.767,168.926 157.204 C 167.120 156.631,167.737 153.935,169.674 153.935 C 170.412 153.935,170.942 154.203,171.217 154.717 M176.975 154.717 C 177.818 156.292,176.459 157.767,174.684 157.204 C 172.878 156.631,173.495 153.935,175.432 153.935 C 176.171 153.935,176.700 154.203,176.975 154.717 M182.733 154.717 C 183.576 156.292,182.217 157.767,180.442 157.204 C 178.636 156.631,179.253 153.935,181.190 153.935 C 181.929 153.935,182.458 154.203,182.733 154.717 M188.491 154.717 C 189.334 156.292,187.975 157.767,186.200 157.204 C 184.394 156.631,185.011 153.935,186.948 153.935 C 187.687 153.935,188.216 154.203,188.491 154.717 M114.395 197.121 L 114.395 205.374 106.142 205.374 L 97.889 205.374 97.889 197.121 L 97.889 188.868 106.142 188.868 L 114.395 188.868 114.395 197.121 M100.458 191.417 C 100.312 191.563,100.192 194.245,100.192 197.377 L 100.192 203.071 106.152 203.071 L 112.112 203.071 112.006 197.217 L 111.900 191.363 106.312 191.257 C 103.238 191.199,100.604 191.271,100.458 191.417 M277.159 195.010 L 277.159 196.545 199.424 196.545 L 121.689 196.545 121.689 195.010 L 121.689 193.474 199.424 193.474 L 277.159 193.474 277.159 195.010 M109.021 197.313 L 109.021 200.000 106.334 200.000 L 103.647 200.000 103.647 197.313 L 103.647 194.626 106.334 194.626 L 109.021 194.626 109.021 197.313 M124.760 199.232 C 126.484 200.956,124.199 203.304,122.391 201.668 C 121.447 200.813,121.506 199.788,122.542 199.062 C 123.640 198.293,123.836 198.308,124.760 199.232 M130.518 199.232 C 132.242 200.956,129.957 203.304,128.149 201.668 C 127.205 200.813,127.264 199.788,128.300 199.062 C 129.398 198.293,129.594 198.308,130.518 199.232 M136.276 199.232 C 138.000 200.956,135.716 203.304,133.907 201.668 C 132.963 200.813,133.023 199.788,134.059 199.062 C 135.156 198.293,135.352 198.308,136.276 199.232 M142.035 199.232 C 143.758 200.956,141.474 203.304,139.666 201.668 C 138.721 200.813,138.781 199.788,139.817 199.062 C 140.915 198.293,141.110 198.308,142.035 199.232 M147.793 199.232 C 149.516 200.956,147.232 203.304,145.424 201.668 C 144.479 200.813,144.539 199.788,145.575 199.062 C 146.673 198.293,146.869 198.308,147.793 199.232 M153.551 199.232 C 155.274 200.956,152.990 203.304,151.182 201.668 C 150.237 200.813,150.297 199.788,151.333 199.062 C 152.431 198.293,152.627 198.308,153.551 199.232 M159.309 199.232 C 161.033 200.956,158.748 203.304,156.940 201.668 C 155.996 200.813,156.055 199.788,157.091 199.062 C 158.189 198.293,158.385 198.308,159.309 199.232 M165.067 199.232 C 166.791 200.956,164.506 203.304,162.698 201.668 C 161.754 200.813,161.813 199.788,162.849 199.062 C 163.947 198.293,164.143 198.308,165.067 199.232 M170.825 199.232 C 172.549 200.956,170.265 203.304,168.456 201.668 C 167.512 200.813,167.571 199.788,168.607 199.062 C 169.705 198.293,169.901 198.308,170.825 199.232 M176.583 199.232 C 178.307 200.956,176.023 203.304,174.214 201.668 C 173.270 200.813,173.330 199.788,174.366 199.062 C 175.464 198.293,175.659 198.308,176.583 199.232 M182.342 199.232 C 184.065 200.956,181.781 203.304,179.973 201.668 C 179.028 200.813,179.088 199.788,180.124 199.062 C 181.222 198.293,181.417 198.308,182.342 199.232 M188.100 199.232 C 189.823 200.956,187.539 203.304,185.731 201.668 C 184.786 200.813,184.846 199.788,185.882 199.062 C 186.980 198.293,187.176 198.308,188.100 199.232 M114.395 241.843 L 114.395 249.904 106.142 249.904 L 97.889 249.904 97.889 241.843 L 97.889 233.781 106.142 233.781 L 114.395 233.781 114.395 241.843 M100.192 241.843 L 100.192 247.601 106.142 247.601 L 112.092 247.601 112.092 241.843 L 112.092 236.084 106.142 236.084 L 100.192 236.084 100.192 241.843 M277.159 239.731 L 277.159 241.075 199.424 241.075 L 121.689 241.075 121.689 239.731 L 121.689 238.388 199.424 238.388 L 277.159 238.388 277.159 239.731 M109.021 242.035 L 109.021 244.530 106.334 244.530 L 103.647 244.530 103.647 242.035 L 103.647 239.539 106.334 239.539 L 109.021 239.539 109.021 242.035 M124.970 244.312 C 125.818 245.606,125.156 246.833,123.608 246.833 C 121.922 246.833,121.138 245.135,122.292 243.981 C 123.168 243.105,124.269 243.241,124.970 244.312 M130.729 244.312 C 131.577 245.606,130.914 246.833,129.367 246.833 C 127.680 246.833,126.896 245.135,128.050 243.981 C 128.926 243.105,130.027 243.241,130.729 244.312 M136.487 244.312 C 137.335 245.606,136.672 246.833,135.125 246.833 C 133.438 246.833,132.654 245.135,133.809 243.981 C 134.685 243.105,135.785 243.241,136.487 244.312 M142.245 244.312 C 143.093 245.606,142.430 246.833,140.883 246.833 C 139.196 246.833,138.413 245.135,139.567 243.981 C 140.443 243.105,141.543 243.241,142.245 244.312 M148.003 244.312 C 148.851 245.606,148.188 246.833,146.641 246.833 C 144.954 246.833,144.171 245.135,145.325 243.981 C 146.201 243.105,147.301 243.241,148.003 244.312 M153.761 244.312 C 154.609 245.606,153.946 246.833,152.399 246.833 C 150.712 246.833,149.929 245.135,151.083 243.981 C 151.959 243.105,153.060 243.241,153.761 244.312 M159.519 244.312 C 160.367 245.606,159.704 246.833,158.157 246.833 C 156.471 246.833,155.687 245.135,156.841 243.981 C 157.717 243.105,158.818 243.241,159.519 244.312 M165.278 244.312 C 166.125 245.606,165.463 246.833,163.916 246.833 C 162.229 246.833,161.445 245.135,162.599 243.981 C 163.475 243.105,164.576 243.241,165.278 244.312 M171.036 244.312 C 171.884 245.606,171.221 246.833,169.674 246.833 C 167.987 246.833,167.203 245.135,168.358 243.981 C 169.234 243.105,170.334 243.241,171.036 244.312 M176.794 244.312 C 177.642 245.606,176.979 246.833,175.432 246.833 C 173.745 246.833,172.962 245.135,174.116 243.981 C 174.992 243.105,176.092 243.241,176.794 244.312 M182.552 244.312 C 183.400 245.606,182.737 246.833,181.190 246.833 C 179.503 246.833,178.720 245.135,179.874 243.981 C 180.750 243.105,181.850 243.241,182.552 244.312 M188.310 244.312 C 189.158 245.606,188.495 246.833,186.948 246.833 C 185.261 246.833,184.478 245.135,185.632 243.981 C 186.508 243.105,187.609 243.241,188.310 244.312 M224.568 272.937 L 224.568 282.150 200.000 282.150 L 175.432 282.150 175.432 272.937 L 175.432 263.724 200.000 263.724 L 224.568 263.724 224.568 272.937 M178.503 272.937 L 178.503 279.079 200.000 279.079 L 221.497 279.079 221.497 272.937 L 221.497 266.795 200.000 266.795 L 178.503 266.795 178.503 272.937 M246.283 287.784 C 249.509 289.511,251.432 292.601,251.437 296.065 L 251.440 297.505 200.000 297.505 L 148.560 297.505 148.563 296.065 C 148.569 291.912,151.277 288.401,155.468 287.112 C 155.997 286.949,176.296 286.846,200.576 286.882 L 244.722 286.948 246.283 287.784 M155.755 290.373 C 153.772 291.085,152.015 292.894,152.015 294.223 C 152.015 294.339,173.608 294.434,200.000 294.434 C 226.392 294.434,247.984 294.304,247.983 294.146 C 247.979 293.361,246.338 291.321,245.219 290.710 C 243.521 289.783,158.290 289.462,155.755 290.373 " stroke="none" fill="#fbfbfb" fill-rule="evenodd"></path><path id="path1" d="M78.692 95.175 C 75.641 96.107,72.953 98.708,72.202 101.456 C 71.874 102.655,71.788 123.330,71.868 181.796 L 71.977 260.521 73.139 262.400 C 73.859 263.565,75.015 264.721,76.180 265.441 L 78.059 266.603 122.906 266.703 L 167.754 266.804 167.754 272.941 L 167.754 279.079 162.240 279.079 C 151.196 279.079,145.957 281.716,142.462 289.034 L 141.075 291.939 140.941 298.560 L 140.807 305.182 200.000 305.182 L 259.193 305.182 259.059 298.560 L 258.925 291.939 257.538 289.034 C 254.043 281.716,248.804 279.079,237.760 279.079 L 232.246 279.079 232.246 272.941 L 232.246 266.804 277.094 266.703 L 321.941 266.603 323.820 265.441 C 324.985 264.721,326.141 263.565,326.861 262.400 L 328.023 260.521 328.132 181.796 C 328.212 123.330,328.126 102.655,327.798 101.456 C 327.247 99.439,325.173 96.975,323.087 95.860 L 321.497 95.010 200.576 94.945 C 134.069 94.910,79.222 95.013,78.692 95.175 M322.142 98.959 C 322.972 99.475,323.882 100.516,324.352 101.485 L 325.149 103.133 325.051 181.443 L 324.952 259.753 323.846 261.203 C 321.799 263.887,324.977 263.724,274.676 263.724 L 229.175 263.724 229.175 272.937 L 229.175 282.150 236.196 282.150 C 250.713 282.150,256.046 286.492,256.046 298.313 L 256.046 302.111 200.000 302.111 L 143.954 302.111 143.954 298.313 C 143.954 286.492,149.287 282.150,163.804 282.150 L 170.825 282.150 170.825 272.937 L 170.825 263.724 125.324 263.724 C 75.023 263.724,78.201 263.887,76.154 261.203 L 75.048 259.753 74.935 181.796 C 74.815 98.334,74.730 101.925,76.862 99.840 C 78.856 97.890,74.640 97.952,200.576 98.018 L 320.729 98.081 322.142 98.959 M269.515 109.372 C 268.353 110.533,268.266 126.155,269.416 127.196 C 270.418 128.103,272.009 127.998,272.723 126.978 C 273.513 125.851,273.616 110.706,272.841 109.691 C 272.020 108.617,270.424 108.463,269.515 109.372 M289.736 123.933 C 283.861 129.841,283.392 130.598,284.591 132.236 C 285.917 134.050,287.203 133.323,293.130 127.415 C 298.967 121.597,299.519 120.750,298.498 119.191 C 297.097 117.053,295.971 117.662,289.736 123.933 M132.117 122.120 C 132.226 122.893,132.516 123.064,134.006 123.235 C 134.975 123.347,136.227 123.739,136.789 124.108 L 137.812 124.778 137.812 129.928 L 137.812 135.078 136.372 135.198 C 134.121 135.384,134.010 137.044,136.250 137.044 L 137.812 137.044 137.812 142.212 C 137.812 149.320,138.308 148.944,128.910 148.944 L 121.689 148.944 121.689 150.288 L 121.689 151.631 199.424 151.631 L 277.159 151.631 277.159 150.288 L 277.159 148.944 209.490 148.944 C 148.866 148.944,141.733 148.882,140.968 148.347 C 140.156 147.778,140.115 147.493,140.115 142.397 L 140.115 137.044 141.677 137.044 C 143.917 137.044,143.806 135.384,141.555 135.198 L 140.115 135.078 140.115 129.928 L 140.115 124.778 141.138 124.108 C 141.700 123.739,142.952 123.347,143.921 123.235 C 145.411 123.064,145.701 122.893,145.810 122.120 C 145.989 120.860,141.926 121.057,140.114 122.397 L 138.964 123.248 137.813 122.397 C 136.001 121.057,131.938 120.860,132.117 122.120 M97.889 152.591 L 97.889 160.845 106.142 160.845 L 114.395 160.845 114.395 152.591 L 114.395 144.338 106.142 144.338 L 97.889 144.338 97.889 152.591 M287.775 146.575 C 286.869 147.577,286.973 149.168,287.993 149.882 C 289.121 150.672,304.265 150.775,305.280 150.000 C 306.355 149.179,306.508 147.583,305.599 146.674 C 304.438 145.513,288.816 145.426,287.775 146.575 M112.092 152.591 L 112.092 158.541 106.142 158.541 L 100.192 158.541 100.192 152.591 L 100.192 146.641 106.142 146.641 L 112.092 146.641 112.092 152.591 M103.647 152.783 L 103.647 155.470 106.334 155.470 L 109.021 155.470 109.021 152.783 L 109.021 150.096 106.334 150.096 L 103.647 150.096 103.647 152.783 M122.065 154.717 C 121.222 156.292,122.582 157.767,124.357 157.204 C 126.163 156.631,125.546 153.935,123.608 153.935 C 122.870 153.935,122.340 154.203,122.065 154.717 M127.823 154.717 C 126.980 156.292,128.340 157.767,130.115 157.204 C 131.921 156.631,131.304 153.935,129.367 153.935 C 128.628 153.935,128.098 154.203,127.823 154.717 M133.581 154.717 C 132.739 156.292,134.098 157.767,135.873 157.204 C 137.679 156.631,137.062 153.935,135.125 153.935 C 134.386 153.935,133.856 154.203,133.581 154.717 M139.340 154.717 C 138.497 156.292,139.856 157.767,141.631 157.204 C 143.437 156.631,142.820 153.935,140.883 153.935 C 140.144 153.935,139.615 154.203,139.340 154.717 M145.098 154.717 C 144.255 156.292,145.614 157.767,147.389 157.204 C 149.195 156.631,148.578 153.935,146.641 153.935 C 145.902 153.935,145.373 154.203,145.098 154.717 M150.856 154.717 C 150.013 156.292,151.372 157.767,153.147 157.204 C 154.953 156.631,154.336 153.935,152.399 153.935 C 151.661 153.935,151.131 154.203,150.856 154.717 M156.614 154.717 C 155.771 156.292,157.130 157.767,158.906 157.204 C 160.712 156.631,160.095 153.935,158.157 153.935 C 157.419 153.935,156.889 154.203,156.614 154.717 M162.372 154.717 C 161.529 156.292,162.889 157.767,164.664 157.204 C 166.470 156.631,165.853 153.935,163.916 153.935 C 163.177 153.935,162.647 154.203,162.372 154.717 M168.130 154.717 C 167.287 156.292,168.647 157.767,170.422 157.204 C 172.228 156.631,171.611 153.935,169.674 153.935 C 168.935 153.935,168.405 154.203,168.130 154.717 M173.889 154.717 C 173.046 156.292,174.405 157.767,176.180 157.204 C 177.986 156.631,177.369 153.935,175.432 153.935 C 174.693 153.935,174.164 154.203,173.889 154.717 M179.647 154.717 C 178.804 156.292,180.163 157.767,181.938 157.204 C 183.744 156.631,183.127 153.935,181.190 153.935 C 180.451 153.935,179.922 154.203,179.647 154.717 M185.405 154.717 C 184.562 156.292,185.921 157.767,187.696 157.204 C 189.502 156.631,188.885 153.935,186.948 153.935 C 186.209 153.935,185.680 154.203,185.405 154.717 M97.889 197.121 L 97.889 205.374 106.142 205.374 L 114.395 205.374 114.395 197.121 L 114.395 188.868 106.142 188.868 L 97.889 188.868 97.889 197.121 M112.006 197.217 L 112.112 203.071 106.152 203.071 L 100.192 203.071 100.192 197.377 C 100.192 190.503,99.565 191.129,106.312 191.257 L 111.900 191.363 112.006 197.217 M121.689 195.010 L 121.689 196.545 199.424 196.545 L 277.159 196.545 277.159 195.010 L 277.159 193.474 199.424 193.474 L 121.689 193.474 121.689 195.010 M103.647 197.313 L 103.647 200.000 106.334 200.000 L 109.021 200.000 109.021 197.313 L 109.021 194.626 106.334 194.626 L 103.647 194.626 103.647 197.313 M122.542 199.062 C 121.506 199.788,121.447 200.813,122.391 201.668 C 124.199 203.304,126.484 200.956,124.760 199.232 C 123.836 198.308,123.640 198.293,122.542 199.062 M128.300 199.062 C 127.264 199.788,127.205 200.813,128.149 201.668 C 129.957 203.304,132.242 200.956,130.518 199.232 C 129.594 198.308,129.398 198.293,128.300 199.062 M134.059 199.062 C 133.023 199.788,132.963 200.813,133.907 201.668 C 135.716 203.304,138.000 200.956,136.276 199.232 C 135.352 198.308,135.156 198.293,134.059 199.062 M139.817 199.062 C 138.781 199.788,138.721 200.813,139.666 201.668 C 141.474 203.304,143.758 200.956,142.035 199.232 C 141.110 198.308,140.915 198.293,139.817 199.062 M145.575 199.062 C 144.539 199.788,144.479 200.813,145.424 201.668 C 147.232 203.304,149.516 200.956,147.793 199.232 C 146.869 198.308,146.673 198.293,145.575 199.062 M151.333 199.062 C 150.297 199.788,150.237 200.813,151.182 201.668 C 152.990 203.304,155.274 200.956,153.551 199.232 C 152.627 198.308,152.431 198.293,151.333 199.062 M157.091 199.062 C 156.055 199.788,155.996 200.813,156.940 201.668 C 158.748 203.304,161.033 200.956,159.309 199.232 C 158.385 198.308,158.189 198.293,157.091 199.062 M162.849 199.062 C 161.813 199.788,161.754 200.813,162.698 201.668 C 164.506 203.304,166.791 200.956,165.067 199.232 C 164.143 198.308,163.947 198.293,162.849 199.062 M168.607 199.062 C 167.571 199.788,167.512 200.813,168.456 201.668 C 170.265 203.304,172.549 200.956,170.825 199.232 C 169.901 198.308,169.705 198.293,168.607 199.062 M174.366 199.062 C 173.330 199.788,173.270 200.813,174.214 201.668 C 176.023 203.304,178.307 200.956,176.583 199.232 C 175.659 198.308,175.464 198.293,174.366 199.062 M180.124 199.062 C 179.088 199.788,179.028 200.813,179.973 201.668 C 181.781 203.304,184.065 200.956,182.342 199.232 C 181.417 198.308,181.222 198.293,180.124 199.062 M185.882 199.062 C 184.846 199.788,184.786 200.813,185.731 201.668 C 187.539 203.304,189.823 200.956,188.100 199.232 C 187.176 198.308,186.980 198.293,185.882 199.062 M97.889 241.843 L 97.889 249.904 106.142 249.904 L 114.395 249.904 114.395 241.843 L 114.395 233.781 106.142 233.781 L 97.889 233.781 97.889 241.843 M112.092 241.843 L 112.092 247.601 106.142 247.601 L 100.192 247.601 100.192 241.843 L 100.192 236.084 106.142 236.084 L 112.092 236.084 112.092 241.843 M121.689 239.731 L 121.689 241.075 199.424 241.075 L 277.159 241.075 277.159 239.731 L 277.159 238.388 199.424 238.388 L 121.689 238.388 121.689 239.731 M103.647 242.035 L 103.647 244.530 106.334 244.530 L 109.021 244.530 109.021 242.035 L 109.021 239.539 106.334 239.539 L 103.647 239.539 103.647 242.035 M122.292 243.981 C 121.138 245.135,121.922 246.833,123.608 246.833 C 125.156 246.833,125.818 245.606,124.970 244.312 C 124.269 243.241,123.168 243.105,122.292 243.981 M128.050 243.981 C 126.896 245.135,127.680 246.833,129.367 246.833 C 130.914 246.833,131.577 245.606,130.729 244.312 C 130.027 243.241,128.926 243.105,128.050 243.981 M133.809 243.981 C 132.654 245.135,133.438 246.833,135.125 246.833 C 136.672 246.833,137.335 245.606,136.487 244.312 C 135.785 243.241,134.685 243.105,133.809 243.981 M139.567 243.981 C 138.413 245.135,139.196 246.833,140.883 246.833 C 142.430 246.833,143.093 245.606,142.245 244.312 C 141.543 243.241,140.443 243.105,139.567 243.981 M145.325 243.981 C 144.171 245.135,144.954 246.833,146.641 246.833 C 148.188 246.833,148.851 245.606,148.003 244.312 C 147.301 243.241,146.201 243.105,145.325 243.981 M151.083 243.981 C 149.929 245.135,150.712 246.833,152.399 246.833 C 153.946 246.833,154.609 245.606,153.761 244.312 C 153.060 243.241,151.959 243.105,151.083 243.981 M156.841 243.981 C 155.687 245.135,156.471 246.833,158.157 246.833 C 159.704 246.833,160.367 245.606,159.519 244.312 C 158.818 243.241,157.717 243.105,156.841 243.981 M162.599 243.981 C 161.445 245.135,162.229 246.833,163.916 246.833 C 165.463 246.833,166.125 245.606,165.278 244.312 C 164.576 243.241,163.475 243.105,162.599 243.981 M168.358 243.981 C 167.203 245.135,167.987 246.833,169.674 246.833 C 171.221 246.833,171.884 245.606,171.036 244.312 C 170.334 243.241,169.234 243.105,168.358 243.981 M174.116 243.981 C 172.962 245.135,173.745 246.833,175.432 246.833 C 176.979 246.833,177.642 245.606,176.794 244.312 C 176.092 243.241,174.992 243.105,174.116 243.981 M179.874 243.981 C 178.720 245.135,179.503 246.833,181.190 246.833 C 182.737 246.833,183.400 245.606,182.552 244.312 C 181.850 243.241,180.750 243.105,179.874 243.981 M185.632 243.981 C 184.478 245.135,185.261 246.833,186.948 246.833 C 188.495 246.833,189.158 245.606,188.310 244.312 C 187.609 243.241,186.508 243.105,185.632 243.981 M175.432 272.937 L 175.432 282.150 200.000 282.150 L 224.568 282.150 224.568 272.937 L 224.568 263.724 200.000 263.724 L 175.432 263.724 175.432 272.937 M221.497 272.937 L 221.497 279.079 200.000 279.079 L 178.503 279.079 178.503 272.937 L 178.503 266.795 200.000 266.795 L 221.497 266.795 221.497 272.937 M155.468 287.112 C 151.277 288.401,148.569 291.912,148.563 296.065 L 148.560 297.505 200.000 297.505 L 251.440 297.505 251.437 296.065 C 251.432 292.601,249.509 289.511,246.283 287.784 L 244.722 286.948 200.576 286.882 C 176.296 286.846,155.997 286.949,155.468 287.112 M245.219 290.710 C 246.338 291.321,247.979 293.361,247.983 294.146 C 247.984 294.304,226.392 294.434,200.000 294.434 C 173.608 294.434,152.015 294.339,152.015 294.223 C 152.015 292.894,153.772 291.085,155.755 290.373 C 158.290 289.462,243.521 289.783,245.219 290.710 " stroke="none" fill="#8d9595" fill-rule="evenodd"></path></g></svg>