<svg id="svg" version="1.1" xmlns="http://www.w3.org/2000/svg" xmlns:xlink="http://www.w3.org/1999/xlink" width="400" height="400" viewBox="0, 0, 400,400"><g id="svgg"><path id="path0" d="M276.767 48.327 C 262.717 63.262,252.088 82.989,248.562 100.671 C 246.437 111.328,246.525 123.730,248.949 154.687 L 249.394 160.380 239.576 170.219 C 234.176 175.630,229.594 180.500,229.393 181.041 C 229.046 181.976,230.922 207.356,231.465 209.066 C 231.895 210.421,233.904 211.697,235.600 211.692 C 236.954 211.687,238.441 210.955,245.254 206.937 L 253.308 202.187 253.832 203.203 C 254.120 203.762,254.844 204.736,255.441 205.369 C 256.348 206.330,256.789 207.612,258.116 213.147 C 259.850 220.376,260.405 221.450,263.123 222.837 C 269.108 225.891,288.337 225.932,293.901 222.903 C 296.652 221.406,297.041 220.670,299.034 213.221 C 300.439 207.964,301.017 206.368,301.716 205.814 C 302.205 205.426,302.904 204.539,303.268 203.843 L 303.931 202.578 311.793 207.368 C 321.483 213.272,323.768 213.722,325.411 210.050 C 325.944 208.858,328.284 186.890,328.284 183.078 C 328.284 181.074,328.596 181.435,314.398 167.018 L 308.355 160.882 309.111 152.828 C 312.495 116.756,312.163 104.834,307.372 90.363 C 302.458 75.525,292.789 59.210,282.026 47.599 L 279.756 45.150 276.767 48.327 M284.904 55.034 C 298.862 72.415,307.112 91.546,308.749 110.329 C 309.360 117.337,308.336 136.041,306.224 156.459 L 305.650 162.007 315.828 172.211 L 326.005 182.414 325.780 184.496 C 325.657 185.640,325.061 191.548,324.457 197.623 C 323.818 204.050,323.166 208.902,322.898 209.225 C 322.000 210.306,320.683 209.717,311.341 204.055 C 301.049 197.818,301.458 197.940,301.443 201.114 C 301.440 201.899,301.011 202.635,299.992 203.607 C 298.636 204.900,298.432 205.416,296.719 211.889 C 294.648 219.719,294.224 220.386,290.620 221.476 C 285.208 223.113,272.063 223.022,266.518 221.310 C 262.676 220.123,262.323 219.567,260.404 211.697 C 258.910 205.571,258.650 204.862,257.413 203.563 C 256.276 202.368,256.030 201.798,255.882 200.015 C 255.785 198.847,255.657 197.891,255.597 197.891 C 255.538 197.891,251.202 200.414,245.961 203.499 C 236.807 208.887,235.158 209.616,234.225 208.683 C 233.890 208.348,231.733 186.515,231.656 182.677 C 231.644 182.087,234.607 178.905,241.842 171.734 L 252.045 161.623 251.422 153.966 C 248.182 114.129,249.100 101.322,256.439 84.027 C 260.943 73.412,269.589 59.939,277.085 51.855 C 280.164 48.535,279.452 48.245,284.904 55.034 M275.484 98.195 C 267.031 99.867,260.814 108.964,262.242 117.577 C 264.585 131.718,281.816 137.228,291.604 126.967 C 303.362 114.640,292.287 94.873,275.484 98.195 M285.539 101.813 C 299.843 108.811,294.326 130.476,278.476 129.548 C 262.464 128.610,259.503 106.962,274.593 101.159 C 277.398 100.080,282.637 100.393,285.539 101.813 M274.776 105.195 C 263.993 110.349,267.968 126.444,279.846 125.721 C 293.476 124.891,293.438 105.028,279.805 104.414 C 277.142 104.295,276.428 104.405,274.776 105.195 M281.570 107.067 C 284.756 108.021,287.632 111.775,287.632 114.981 C 287.632 121.154,280.525 125.307,275.250 122.216 C 266.840 117.287,272.266 104.279,281.570 107.067 M293.305 206.207 C 292.800 208.137,273.655 208.939,266.628 207.326 C 264.884 206.925,263.384 206.670,263.295 206.759 C 263.023 207.031,265.462 216.459,265.937 216.975 C 267.281 218.433,282.197 219.366,287.314 218.312 C 288.895 217.987,289.198 218.036,289.892 218.730 C 290.325 219.162,290.739 219.440,290.813 219.346 C 291.337 218.684,294.023 206.813,293.791 206.186 C 293.513 205.435,293.507 205.435,293.305 206.207 M276.510 210.780 C 280.253 210.921,284.317 210.847,286.460 210.601 C 288.453 210.372,290.151 210.253,290.234 210.336 C 290.518 210.620,289.426 214.773,288.968 215.154 C 287.531 216.346,273.720 216.627,269.578 215.548 L 267.823 215.091 267.222 212.582 L 266.622 210.073 268.402 210.308 C 269.381 210.438,273.030 210.650,276.510 210.780 M76.437 211.901 C 75.219 212.508,74.075 213.468,73.389 214.457 L 72.291 216.041 72.015 266.314 C 71.697 324.048,71.562 320.908,74.459 323.541 C 76.811 325.678,75.719 325.599,102.953 325.599 L 128.092 325.599 128.089 327.804 C 128.079 335.797,124.394 344.814,118.652 350.901 C 117.305 352.329,116.203 353.605,116.203 353.738 C 116.203 353.870,131.676 353.979,150.588 353.979 L 184.973 353.979 182.695 351.582 C 176.528 345.093,173.031 337.110,172.847 329.101 L 172.771 325.791 198.082 325.599 C 226.210 325.386,224.500 325.555,226.960 322.753 C 229.005 320.423,228.951 321.933,228.953 267.965 C 228.955 212.600,229.094 215.991,226.729 213.470 C 224.154 210.724,230.891 210.948,150.507 210.938 L 78.386 210.930 76.437 211.901 M223.822 214.214 C 226.706 216.367,226.450 212.445,226.563 256.212 L 226.665 295.302 150.533 295.302 L 74.401 295.302 74.401 256.466 C 74.401 212.522,74.158 215.857,77.479 214.101 L 79.135 213.225 150.949 213.324 L 222.763 213.423 223.822 214.214 M136.644 220.502 C 134.385 221.879,134.228 222.627,134.228 232.004 L 134.228 240.460 135.379 240.460 L 136.529 240.460 136.529 232.197 C 136.529 223.936,136.529 223.934,137.471 222.993 L 138.412 222.052 170.602 222.052 C 201.724 222.052,202.821 222.076,203.697 222.785 L 204.602 223.518 204.602 245.590 C 204.602 271.281,205.064 268.857,200.105 269.214 C 196.659 269.462,196.613 269.482,190.379 273.227 L 186.194 275.743 185.931 274.238 C 184.935 268.530,178.323 265.700,164.621 265.119 L 159.156 264.888 159.156 266.097 L 159.156 267.306 162.048 267.306 C 168.807 267.306,176.532 268.682,180.195 270.538 C 182.894 271.906,183.469 272.930,183.701 276.779 L 183.893 279.964 190.832 275.797 L 197.771 271.630 200.807 271.454 C 207.246 271.081,206.903 272.541,206.903 245.467 C 206.903 220.337,207.025 221.474,204.201 220.294 C 201.847 219.310,138.277 219.506,136.644 220.502 M142.756 226.653 C 139.299 228.761,139.910 234.013,143.737 235.076 C 146.164 235.750,194.527 235.608,196.169 234.922 C 199.644 233.470,199.981 228.923,196.774 226.761 L 195.476 225.887 169.742 225.888 C 144.730 225.890,143.973 225.911,142.756 226.653 M264.869 228.023 C 264.737 228.988,263.909 231.878,263.030 234.447 C 258.884 246.559,261.484 253.786,274.687 266.849 L 278.295 270.419 282.705 265.844 C 295.459 252.616,297.706 245.946,293.602 233.498 C 292.861 231.251,292.142 228.705,292.004 227.841 C 291.865 226.977,291.559 226.273,291.322 226.277 C 291.085 226.281,289.252 226.537,287.248 226.846 C 285.244 227.154,283.452 227.410,283.265 227.414 C 282.642 227.427,283.394 231.519,284.947 236.578 C 286.832 242.718,286.888 244.432,285.305 247.555 C 283.603 250.914,278.396 257.513,277.916 256.921 C 277.844 256.832,276.593 255.365,275.134 253.660 C 269.781 247.402,269.216 245.201,271.286 238.655 C 272.796 233.879,274.000 228.429,273.711 227.676 C 273.598 227.381,272.154 227.004,270.083 226.728 C 264.948 226.045,265.147 225.995,264.869 228.023 M195.799 229.129 C 196.932 230.262,196.976 230.880,196.007 232.076 L 195.274 232.982 169.703 232.982 L 144.132 232.982 143.399 232.076 C 142.430 230.880,142.474 230.262,143.607 229.129 L 144.548 228.188 169.703 228.188 L 194.857 228.188 195.799 229.129 M270.805 229.567 C 271.131 229.759,270.345 232.985,268.849 237.584 C 266.175 245.809,267.307 249.100,276.129 258.753 L 278.155 260.970 280.817 258.098 C 289.025 249.241,290.350 244.873,287.519 235.993 C 285.554 229.827,285.546 229.771,286.572 229.562 C 289.653 228.934,289.343 228.660,290.832 233.330 C 294.105 243.596,293.753 247.157,288.721 254.680 C 286.663 257.757,278.764 266.539,278.055 266.539 C 277.433 266.539,269.297 257.154,267.271 254.101 C 262.977 247.629,262.674 244.191,265.584 234.980 L 267.498 228.925 269.032 229.176 C 269.875 229.314,270.673 229.490,270.805 229.567 M178.830 241.595 C 175.547 243.597,175.826 248.433,179.308 249.888 C 181.137 250.652,195.058 250.664,196.880 249.903 C 200.575 248.359,200.879 243.136,197.370 241.471 C 195.229 240.454,180.539 240.553,178.830 241.595 M101.952 243.153 C 98.254 245.107,98.123 245.855,98.258 264.148 C 98.396 282.906,98.626 283.552,105.371 284.093 C 107.796 284.288,108.261 284.506,115.414 288.808 L 122.915 293.320 123.022 288.750 L 123.130 284.180 137.129 284.180 C 158.299 284.180,156.855 285.709,156.855 263.282 C 156.855 245.133,156.692 244.364,152.516 242.786 C 150.285 241.943,103.601 242.282,101.952 243.153 M196.963 244.081 C 197.800 245.226,197.615 246.456,196.469 247.357 C 194.803 248.668,180.551 248.397,179.448 247.033 C 178.476 245.832,178.524 245.219,179.678 244.064 L 180.642 243.101 188.531 243.219 C 195.822 243.328,196.461 243.393,196.963 244.081 M153.109 246.124 L 154.362 247.377 154.464 262.807 C 154.603 283.918,156.619 281.879,135.597 281.879 L 120.833 281.879 120.723 285.523 L 120.614 289.166 114.546 285.523 C 108.965 282.171,108.319 281.879,106.492 281.879 C 103.934 281.878,102.008 280.910,101.151 279.195 C 100.228 277.347,100.124 249.724,101.032 247.551 C 102.289 244.541,101.141 244.660,127.989 244.771 L 151.855 244.871 153.109 246.124 M127.983 251.586 C 126.936 252.409,120.805 269.824,120.805 271.975 C 120.805 275.544,126.443 276.906,128.135 273.745 C 129.186 271.781,134.228 255.885,134.228 254.534 C 134.228 251.432,130.447 249.647,127.983 251.586 M131.692 253.975 C 132.022 254.501,131.479 256.538,129.112 263.661 C 125.911 273.294,125.474 274.048,123.855 272.737 L 122.998 272.043 125.980 263.059 C 129.472 252.538,130.133 251.487,131.692 253.975 M115.053 253.765 C 113.695 254.249,106.999 261.358,106.774 262.553 C 106.257 265.310,113.234 272.675,116.363 272.675 C 120.722 272.675,121.693 268.659,118.230 264.957 L 116.454 263.057 118.237 261.246 C 121.917 257.511,119.628 252.135,115.053 253.765 M137.296 253.924 C 134.325 255.090,134.140 258.394,136.883 261.294 L 138.771 263.291 136.883 265.270 C 132.568 269.793,136.878 275.362,141.718 271.516 C 149.473 265.353,149.942 262.787,144.323 257.259 C 140.670 253.664,139.443 253.082,137.296 253.924 M178.121 256.280 C 176.430 257.842,176.045 259.701,176.999 261.711 C 178.133 264.101,178.758 264.238,188.514 264.238 L 197.200 264.238 198.504 262.934 C 199.992 261.446,200.265 259.329,199.226 257.322 C 198.136 255.212,197.253 255.034,187.933 255.034 L 179.471 255.034 178.121 256.280 M117.769 257.011 C 118.104 257.637,117.775 258.151,115.587 260.418 L 113.009 263.087 115.565 265.735 C 118.338 268.606,118.305 268.547,117.724 269.632 C 116.934 271.109,115.709 270.511,112.220 266.945 C 108.285 262.924,108.241 263.467,112.867 258.960 C 116.218 255.695,116.916 255.417,117.769 257.011 M142.738 259.180 C 144.596 261.038,146.117 262.807,146.117 263.111 C 146.117 263.978,139.820 270.374,138.966 270.374 C 136.608 270.374,136.850 268.682,139.597 265.964 C 140.863 264.711,141.898 263.503,141.898 263.279 C 141.898 263.055,140.863 261.847,139.597 260.594 C 137.201 258.223,136.723 256.939,137.967 256.215 C 139.072 255.572,139.226 255.668,142.738 259.180 M196.655 257.932 C 197.674 258.645,197.778 260.234,196.872 261.235 C 196.070 262.122,180.883 262.320,179.786 261.457 C 178.740 260.635,178.633 259.460,179.503 258.354 L 180.305 257.335 188.054 257.335 C 194.446 257.335,195.952 257.439,196.655 257.932 M226.580 308.506 C 226.449 320.653,226.490 320.461,223.590 322.435 L 222.322 323.298 150.336 323.298 L 78.349 323.298 77.067 322.434 C 74.318 320.582,74.223 320.126,74.091 308.245 L 73.973 297.603 150.335 297.603 L 226.698 297.603 226.580 308.506 M145.478 306.058 C 141.625 307.236,141.123 312.911,144.720 314.618 C 146.495 315.460,154.462 315.510,156.050 314.689 C 159.123 313.100,159.226 307.895,156.213 306.430 C 154.894 305.789,147.227 305.523,145.478 306.058 M154.426 308.365 C 156.315 309.084,156.762 311.278,155.236 312.346 C 152.568 314.215,144.583 312.839,144.583 310.510 C 144.583 308.302,150.734 306.962,154.426 308.365 M170.406 329.530 C 170.888 336.536,173.679 344.263,177.544 349.289 C 178.399 350.400,179.099 351.393,179.099 351.494 C 179.099 351.595,166.242 351.678,150.527 351.678 C 134.813 351.678,121.956 351.539,121.956 351.369 C 121.956 351.199,122.400 350.465,122.943 349.739 C 127.339 343.856,130.375 335.223,130.388 328.571 L 130.393 325.983 150.278 325.983 L 170.162 325.983 170.406 329.530 " stroke="none" fill="#a5adad" fill-rule="evenodd"></path><path id="path1" d="M0.000 200.000 L 0.000 400.000 200.000 400.000 L 400.000 400.000 400.000 200.000 L 400.000 0.000 200.000 0.000 L 0.000 0.000 0.000 200.000 M287.288 53.785 C 295.839 64.462,303.287 78.026,307.372 90.363 C 312.163 104.834,312.495 116.756,309.111 152.828 L 308.355 160.882 314.398 167.018 C 328.596 181.435,328.284 181.074,328.284 183.078 C 328.284 186.890,325.944 208.858,325.411 210.050 C 323.768 213.722,321.483 213.272,311.793 207.368 L 303.931 202.578 303.268 203.843 C 302.904 204.539,302.205 205.426,301.716 205.814 C 301.017 206.368,300.439 207.964,299.034 213.221 C 297.041 220.670,296.652 221.406,293.901 222.903 C 288.337 225.932,269.108 225.891,263.123 222.837 C 260.405 221.450,259.850 220.376,258.116 213.147 C 256.789 207.612,256.348 206.330,255.441 205.369 C 254.844 204.736,254.120 203.762,253.832 203.203 L 253.308 202.187 245.254 206.937 C 238.441 210.955,236.954 211.687,235.600 211.692 C 233.904 211.697,231.895 210.421,231.465 209.066 C 230.922 207.356,229.046 181.976,229.393 181.041 C 229.594 180.500,234.176 175.630,239.576 170.219 L 249.394 160.380 248.949 154.687 C 246.525 123.730,246.437 111.328,248.562 100.671 C 252.088 82.989,262.717 63.262,276.767 48.327 L 279.756 45.150 282.026 47.599 C 283.274 48.946,285.642 51.729,287.288 53.785 M277.085 51.855 C 269.589 59.939,260.943 73.412,256.439 84.027 C 249.100 101.322,248.182 114.129,251.422 153.966 L 252.045 161.623 241.842 171.734 C 234.607 178.905,231.644 182.087,231.656 182.677 C 231.733 186.515,233.890 208.348,234.225 208.683 C 235.158 209.616,236.807 208.887,245.961 203.499 C 251.202 200.414,255.538 197.891,255.597 197.891 C 255.657 197.891,255.785 198.847,255.882 200.015 C 256.030 201.798,256.276 202.368,257.413 203.563 C 258.650 204.862,258.910 205.571,260.404 211.697 C 262.323 219.567,262.676 220.123,266.518 221.310 C 272.063 223.022,285.208 223.113,290.620 221.476 C 294.224 220.386,294.648 219.719,296.719 211.889 C 298.432 205.416,298.636 204.900,299.992 203.607 C 301.011 202.635,301.440 201.899,301.443 201.114 C 301.458 197.940,301.049 197.818,311.341 204.055 C 320.683 209.717,322.000 210.306,322.898 209.225 C 323.166 208.902,323.818 204.050,324.457 197.623 C 325.061 191.548,325.657 185.640,325.780 184.496 L 326.005 182.414 315.828 172.211 L 305.650 162.007 306.224 156.459 C 308.336 136.041,309.360 117.337,308.749 110.329 C 307.112 91.546,298.862 72.415,284.904 55.034 C 279.452 48.245,280.164 48.535,277.085 51.855 M283.592 98.383 C 296.315 101.697,300.719 117.409,291.604 126.967 C 283.413 135.553,268.806 133.233,263.807 122.551 C 257.548 109.174,269.406 94.688,283.592 98.383 M274.593 101.159 C 259.503 106.962,262.464 128.610,278.476 129.548 C 294.326 130.476,299.843 108.811,285.539 101.813 C 282.637 100.393,277.398 100.080,274.593 101.159 M284.655 105.577 C 293.965 111.034,290.615 125.066,279.846 125.721 C 267.968 126.444,263.993 110.349,274.776 105.195 C 277.497 103.895,282.087 104.072,284.655 105.577 M277.275 106.974 C 269.941 109.205,268.721 118.390,275.250 122.216 C 280.525 125.307,287.632 121.154,287.632 114.981 C 287.632 109.932,281.961 105.548,277.275 106.974 M292.510 213.061 C 290.695 220.165,290.895 219.733,289.892 218.730 C 289.198 218.036,288.895 217.987,287.314 218.312 C 282.197 219.366,267.281 218.433,265.937 216.975 C 265.462 216.459,263.023 207.031,263.295 206.759 C 263.384 206.670,264.884 206.925,266.628 207.326 C 273.655 208.939,292.800 208.137,293.305 206.207 C 293.507 205.435,293.513 205.435,293.791 206.186 C 293.964 206.656,293.473 209.292,292.510 213.061 M267.222 212.582 L 267.823 215.091 269.578 215.548 C 273.720 216.627,287.531 216.346,288.968 215.154 C 289.426 214.773,290.518 210.620,290.234 210.336 C 290.151 210.253,288.453 210.372,286.460 210.601 C 282.980 211.001,272.335 210.828,268.402 210.308 L 266.622 210.073 267.222 212.582 M224.161 211.657 C 226.041 212.527,227.570 214.108,228.359 215.999 C 229.096 217.762,229.277 317.330,228.548 319.953 C 228.078 321.645,226.276 323.829,224.584 324.756 C 223.509 325.345,220.951 325.426,198.082 325.599 L 172.771 325.791 172.847 329.101 C 173.031 337.110,176.528 345.093,182.695 351.582 L 184.973 353.979 150.588 353.979 C 131.676 353.979,116.203 353.870,116.203 353.738 C 116.203 353.605,117.305 352.329,118.652 350.901 C 124.394 344.814,128.079 335.797,128.089 327.804 L 128.092 325.599 102.953 325.599 C 75.719 325.599,76.811 325.678,74.459 323.541 C 71.562 320.908,71.697 324.048,72.015 266.314 L 72.291 216.041 73.389 214.457 C 74.075 213.468,75.219 212.508,76.437 211.901 L 78.386 210.930 150.507 210.938 C 219.887 210.947,222.685 210.974,224.161 211.657 M77.479 214.101 C 74.158 215.857,74.401 212.522,74.401 256.466 L 74.401 295.302 150.533 295.302 L 226.665 295.302 226.563 256.212 C 226.450 212.445,226.706 216.367,223.822 214.214 L 222.763 213.423 150.949 213.324 L 79.135 213.225 77.479 214.101 M204.201 220.294 C 207.025 221.474,206.903 220.337,206.903 245.467 C 206.903 272.541,207.246 271.081,200.807 271.454 L 197.771 271.630 190.832 275.797 L 183.893 279.964 183.701 276.779 C 183.469 272.930,182.894 271.906,180.195 270.538 C 176.532 268.682,168.807 267.306,162.048 267.306 L 159.156 267.306 159.156 266.097 L 159.156 264.888 164.621 265.119 C 178.323 265.700,184.935 268.530,185.931 274.238 L 186.194 275.743 190.379 273.227 C 196.613 269.482,196.659 269.462,200.105 269.214 C 205.064 268.857,204.602 271.281,204.602 245.590 L 204.602 223.518 203.697 222.785 C 202.821 222.076,201.724 222.052,170.602 222.052 L 138.412 222.052 137.471 222.993 C 136.529 223.934,136.529 223.936,136.529 232.197 L 136.529 240.460 135.379 240.460 L 134.228 240.460 134.228 232.004 C 134.228 222.627,134.385 221.879,136.644 220.502 C 138.277 219.506,201.847 219.310,204.201 220.294 M196.774 226.761 C 199.981 228.923,199.644 233.470,196.169 234.922 C 194.527 235.608,146.164 235.750,143.737 235.076 C 139.910 234.013,139.299 228.761,142.756 226.653 C 143.973 225.911,144.730 225.890,169.742 225.888 L 195.476 225.887 196.774 226.761 M270.083 226.728 C 272.154 227.004,273.598 227.381,273.711 227.676 C 274.000 228.429,272.796 233.879,271.286 238.655 C 269.216 245.201,269.781 247.402,275.134 253.660 C 276.593 255.365,277.844 256.832,277.916 256.921 C 278.396 257.513,283.603 250.914,285.305 247.555 C 286.888 244.432,286.832 242.718,284.947 236.578 C 283.394 231.519,282.642 227.427,283.265 227.414 C 283.452 227.410,285.244 227.154,287.248 226.846 C 289.252 226.537,291.085 226.281,291.322 226.277 C 291.559 226.273,291.865 226.977,292.004 227.841 C 292.142 228.705,292.861 231.251,293.602 233.498 C 297.706 245.946,295.459 252.616,282.705 265.844 L 278.295 270.419 274.687 266.849 C 261.484 253.786,258.884 246.559,263.030 234.447 C 263.909 231.878,264.737 228.988,264.869 228.023 C 265.147 225.995,264.948 226.045,270.083 226.728 M143.607 229.129 C 142.474 230.262,142.430 230.880,143.399 232.076 L 144.132 232.982 169.703 232.982 L 195.274 232.982 196.007 232.076 C 196.976 230.880,196.932 230.262,195.799 229.129 L 194.857 228.188 169.703 228.188 L 144.548 228.188 143.607 229.129 M265.584 234.980 C 262.674 244.191,262.977 247.629,267.271 254.101 C 269.297 257.154,277.433 266.539,278.055 266.539 C 278.764 266.539,286.663 257.757,288.721 254.680 C 293.753 247.157,294.105 243.596,290.832 233.330 C 289.343 228.660,289.653 228.934,286.572 229.562 C 285.546 229.771,285.554 229.827,287.519 235.993 C 290.350 244.873,289.025 249.241,280.817 258.098 L 278.155 260.970 276.129 258.753 C 267.307 249.100,266.175 245.809,268.849 237.584 C 270.345 232.985,271.131 229.759,270.805 229.567 C 270.673 229.490,269.875 229.314,269.032 229.176 L 267.498 228.925 265.584 234.980 M197.370 241.471 C 200.879 243.136,200.575 248.359,196.880 249.903 C 195.058 250.664,181.137 250.652,179.308 249.888 C 175.826 248.433,175.547 243.597,178.830 241.595 C 180.539 240.553,195.229 240.454,197.370 241.471 M152.516 242.786 C 156.692 244.364,156.855 245.133,156.855 263.282 C 156.855 285.709,158.299 284.180,137.129 284.180 L 123.130 284.180 123.022 288.750 L 122.915 293.320 115.414 288.808 C 108.261 284.506,107.796 284.288,105.371 284.093 C 98.626 283.552,98.396 282.906,98.258 264.148 C 98.123 245.855,98.254 245.107,101.952 243.153 C 103.601 242.282,150.285 241.943,152.516 242.786 M179.678 244.064 C 178.524 245.219,178.476 245.832,179.448 247.033 C 181.463 249.524,197.507 248.325,197.507 245.683 C 197.507 243.455,197.112 243.347,188.531 243.219 L 180.642 243.101 179.678 244.064 M102.853 245.451 C 100.539 246.871,100.479 247.322,100.480 263.363 C 100.481 281.232,100.690 281.877,106.492 281.879 C 108.319 281.879,108.965 282.171,114.546 285.523 L 120.614 289.166 120.723 285.523 L 120.833 281.879 135.597 281.879 C 156.619 281.879,154.603 283.918,154.464 262.807 L 154.362 247.377 153.109 246.124 L 151.855 244.871 127.989 244.771 C 104.585 244.674,104.098 244.687,102.853 245.451 M133.107 251.936 C 134.772 253.601,134.592 254.921,131.406 264.459 C 128.141 274.232,128.071 274.385,126.500 275.198 C 124.144 276.416,120.805 274.527,120.805 271.975 C 120.805 269.824,126.936 252.409,127.983 251.586 C 129.492 250.399,131.722 250.551,133.107 251.936 M129.356 253.577 C 129.139 253.851,127.620 258.118,125.980 263.059 L 122.998 272.043 123.855 272.737 C 125.474 274.048,125.911 273.294,129.112 263.661 C 131.479 256.538,132.022 254.501,131.692 253.975 C 131.167 253.139,129.878 252.919,129.356 253.577 M118.133 254.081 C 120.955 255.540,120.997 258.445,118.237 261.246 L 116.454 263.057 118.230 264.957 C 121.693 268.659,120.722 272.675,116.363 272.675 C 114.627 272.675,114.462 272.569,111.133 269.319 C 105.309 263.632,105.288 263.035,110.739 257.658 C 115.274 253.184,115.855 252.903,118.133 254.081 M140.243 253.903 C 141.505 254.375,147.071 259.734,147.871 261.247 C 149.154 263.675,146.946 267.361,141.718 271.516 C 136.878 275.362,132.568 269.793,136.883 265.270 L 138.771 263.291 136.883 261.294 C 135.216 259.532,134.996 259.104,135.004 257.645 C 135.019 254.610,137.464 252.864,140.243 253.903 M197.520 255.615 C 200.118 256.959,200.635 260.803,198.504 262.934 L 197.200 264.238 188.514 264.238 C 178.758 264.238,178.133 264.101,176.999 261.711 C 176.045 259.701,176.430 257.842,178.121 256.280 L 179.471 255.034 187.933 255.034 C 194.746 255.034,196.614 255.147,197.520 255.615 M112.867 258.960 C 108.241 263.467,108.285 262.924,112.220 266.945 C 115.709 270.511,116.934 271.109,117.724 269.632 C 118.305 268.547,118.338 268.606,115.565 265.735 L 113.009 263.087 115.587 260.418 C 117.775 258.151,118.104 257.637,117.769 257.011 C 116.916 255.417,116.218 255.695,112.867 258.960 M137.967 256.215 C 136.723 256.939,137.201 258.223,139.597 260.594 C 140.863 261.847,141.898 263.055,141.898 263.279 C 141.898 263.503,140.863 264.711,139.597 265.964 C 136.850 268.682,136.608 270.374,138.966 270.374 C 139.820 270.374,146.117 263.978,146.117 263.111 C 146.117 262.502,139.575 255.794,138.999 255.812 C 138.801 255.819,138.337 256.000,137.967 256.215 M179.503 258.354 C 178.633 259.460,178.740 260.635,179.786 261.457 C 180.229 261.806,182.561 261.937,188.317 261.937 C 197.019 261.937,197.507 261.809,197.507 259.531 C 197.507 257.550,196.580 257.335,188.054 257.335 L 180.305 257.335 179.503 258.354 M74.091 308.245 C 74.223 320.126,74.318 320.582,77.067 322.434 L 78.349 323.298 150.336 323.298 L 222.322 323.298 223.590 322.435 C 226.490 320.461,226.449 320.653,226.580 308.506 L 226.698 297.603 150.335 297.603 L 73.973 297.603 74.091 308.245 M156.213 306.430 C 159.226 307.895,159.123 313.100,156.050 314.689 C 154.462 315.510,146.495 315.460,144.720 314.618 C 141.123 312.911,141.625 307.236,145.478 306.058 C 147.227 305.523,154.894 305.789,156.213 306.430 M146.500 308.230 C 144.570 308.940,144.015 310.842,145.350 312.176 C 146.370 313.197,153.839 313.325,155.236 312.346 C 156.762 311.278,156.315 309.084,154.426 308.365 C 153.328 307.948,147.536 307.849,146.500 308.230 M130.388 328.571 C 130.375 335.223,127.339 343.856,122.943 349.739 C 122.400 350.465,121.956 351.199,121.956 351.369 C 121.956 351.539,134.813 351.678,150.527 351.678 C 166.242 351.678,179.099 351.595,179.099 351.494 C 179.099 351.393,178.399 350.400,177.544 349.289 C 173.679 344.263,170.888 336.536,170.406 329.530 L 170.162 325.983 150.278 325.983 L 130.393 325.983 130.388 328.571 " stroke="none" fill="#fcfcfc" fill-rule="evenodd"></path></g></svg>