<svg id="svg" version="1.1" xmlns="http://www.w3.org/2000/svg" xmlns:xlink="http://www.w3.org/1999/xlink" width="400" height="400.383877159309" viewBox="0, 0, 400,400.383877159309"><g id="svgg"><path id="path0" d="M113.451 78.712 C 91.987 82.081,80.450 105.064,90.477 124.478 C 102.051 146.888,135.215 146.297,146.245 123.483 C 157.133 100.965,138.009 74.858,113.451 78.712 M124.904 82.379 C 147.253 88.170,153.730 116.853,135.993 131.483 C 118.301 146.076,91.573 134.371,89.962 111.324 C 88.665 92.763,106.848 77.700,124.904 82.379 M268.061 87.508 C 265.684 88.958,265.643 89.223,265.643 103.281 C 265.643 120.387,265.051 119.506,276.679 119.703 L 284.069 119.828 284.069 121.910 L 284.069 123.992 278.503 123.992 L 272.937 123.992 272.937 129.175 L 272.937 134.357 289.443 134.357 L 305.950 134.357 305.950 129.175 L 305.950 123.992 300.384 123.992 L 294.818 123.992 294.818 121.881 L 294.818 119.770 301.440 119.768 C 309.073 119.765,310.430 119.493,312.061 117.636 L 313.244 116.288 313.244 103.422 C 313.244 89.209,313.206 88.960,310.826 87.508 C 308.915 86.343,269.972 86.343,268.061 87.508 M309.471 90.463 C 310.419 91.320,310.563 114.482,309.628 115.762 C 309.122 116.455,308.479 116.515,300.415 116.623 L 291.747 116.739 291.747 121.901 L 291.747 127.063 297.313 127.063 L 302.879 127.063 302.879 129.175 L 302.879 131.286 289.443 131.286 L 276.008 131.286 276.008 129.175 L 276.008 127.063 281.574 127.063 L 287.140 127.063 287.140 121.901 L 287.140 116.739 278.471 116.623 C 270.407 116.515,269.765 116.455,269.258 115.762 C 268.380 114.558,268.463 91.509,269.349 90.529 C 270.283 89.498,308.335 89.435,309.471 90.463 M121.067 101.939 C 118.607 106.045,116.438 109.405,116.248 109.405 C 116.057 109.405,114.360 108.369,112.476 107.102 C 110.592 105.835,108.875 104.798,108.661 104.798 C 108.250 104.798,102.879 112.585,102.879 113.180 C 102.879 113.370,105.915 115.535,109.626 117.991 C 120.037 124.882,119.527 125.087,128.313 110.457 L 134.634 99.933 130.087 97.203 L 125.541 94.473 121.067 101.939 M128.606 100.005 C 130.498 101.199,130.963 99.915,125.108 109.669 C 118.117 121.314,119.452 120.662,112.295 115.924 L 107.066 112.463 107.688 111.414 C 109.342 108.624,108.980 108.621,113.252 111.466 C 115.377 112.880,117.254 113.951,117.425 113.845 C 117.595 113.740,119.702 110.366,122.105 106.347 C 124.509 102.328,126.612 99.040,126.777 99.040 C 126.943 99.040,127.766 99.474,128.606 100.005 M153.935 110.557 L 153.935 115.931 174.280 115.931 L 194.626 115.931 194.626 135.125 L 194.626 154.319 200.000 154.319 L 205.374 154.319 205.374 135.125 L 205.374 115.931 233.205 115.931 L 261.036 115.931 261.036 110.557 L 261.036 105.182 207.486 105.182 L 153.935 105.182 153.935 110.557 M257.965 110.557 L 257.965 112.860 230.138 112.860 L 202.310 112.860 202.211 131.958 L 202.111 151.056 200.000 151.056 L 197.889 151.056 197.789 131.958 L 197.690 112.860 177.348 112.860 L 157.006 112.860 157.006 110.557 L 157.006 108.253 207.486 108.253 L 257.965 108.253 257.965 110.557 M158.157 200.000 L 158.157 242.226 200.192 242.226 L 242.226 242.226 242.226 200.000 L 242.226 157.774 200.192 157.774 L 158.157 157.774 158.157 200.000 M238.964 200.000 L 238.964 238.964 200.096 239.061 L 161.228 239.159 161.228 200.000 L 161.228 160.841 200.096 160.939 L 238.964 161.036 238.964 200.000 M209.655 184.933 C 209.177 185.842,197.270 214.988,197.030 215.835 C 196.869 216.402,197.103 216.507,198.523 216.507 L 200.207 216.507 206.629 200.802 C 210.162 192.164,213.052 184.909,213.052 184.679 C 213.052 183.952,210.052 184.177,209.655 184.933 M174.376 195.031 C 163.848 200.995,163.841 200.164,174.472 205.473 L 182.726 209.595 182.726 207.864 L 182.726 206.133 176.967 203.392 C 173.800 201.884,171.213 200.548,171.217 200.421 C 171.222 200.295,173.813 198.753,176.975 196.995 L 182.726 193.797 182.726 192.100 C 182.726 191.167,182.682 190.405,182.630 190.407 C 182.577 190.409,178.863 192.490,174.376 195.031 M217.731 192.133 L 217.850 193.982 222.841 196.779 C 225.585 198.317,228.149 199.769,228.538 200.005 C 229.143 200.373,228.417 200.839,223.451 203.271 L 217.658 206.108 217.658 207.885 L 217.658 209.663 225.816 205.461 C 236.241 200.092,236.165 200.857,226.793 195.579 C 222.719 193.285,218.987 191.155,218.499 190.846 C 217.612 190.285,217.612 190.286,217.731 192.133 M194.626 264.683 L 194.626 284.069 166.795 284.069 L 138.964 284.069 138.964 289.443 L 138.964 294.818 192.706 294.818 L 246.449 294.818 246.449 289.443 L 246.449 284.069 225.912 284.069 L 205.374 284.069 205.374 264.683 L 205.374 245.298 200.000 245.298 L 194.626 245.298 194.626 264.683 M202.303 267.751 L 202.303 287.133 222.745 287.233 L 243.186 287.332 243.186 289.443 L 243.186 291.555 192.610 291.652 L 142.035 291.749 142.035 289.445 L 142.035 287.140 169.866 287.140 L 197.697 287.140 197.697 268.010 C 197.697 257.489,197.812 248.765,197.953 248.624 C 198.093 248.484,199.130 248.369,200.256 248.369 L 202.303 248.369 202.303 267.751 M275.624 258.907 C 239.060 266.731,244.593 320.719,281.958 320.719 C 315.449 320.719,325.434 275.524,295.103 261.221 C 289.640 258.644,281.418 257.667,275.624 258.907 M289.251 262.355 C 309.750 267.950,316.999 293.508,302.435 308.840 C 286.582 325.529,259.010 317.661,254.353 295.119 C 250.199 275.008,269.436 256.948,289.251 262.355 M89.174 266.395 C 86.799 267.843,86.756 268.123,86.758 282.035 C 86.760 299.025,86.056 297.982,97.697 298.273 L 105.374 298.464 105.374 300.576 L 105.374 302.687 99.712 302.793 L 94.050 302.900 94.050 308.072 L 94.050 313.244 110.557 313.244 L 127.063 313.244 127.063 308.061 L 127.063 302.879 121.497 302.879 L 115.931 302.879 115.931 300.576 L 115.931 298.273 123.654 298.273 L 131.376 298.273 132.867 296.782 L 134.357 295.292 134.357 281.958 L 134.357 268.624 132.867 267.133 L 131.376 265.643 110.890 265.644 C 91.248 265.646,90.352 265.677,89.174 266.395 M130.683 269.317 C 131.592 270.226,131.592 293.689,130.683 294.598 C 130.170 295.111,128.785 295.202,121.470 295.202 L 112.860 295.202 112.860 300.576 L 112.860 305.950 118.426 305.950 L 123.992 305.950 123.992 308.061 L 123.992 310.173 110.557 310.173 L 97.121 310.173 97.121 308.061 L 97.121 305.950 102.879 305.950 L 108.637 305.950 108.637 300.576 L 108.637 295.202 99.934 295.202 C 92.375 295.202,91.139 295.118,90.529 294.566 C 89.504 293.639,89.443 270.542,90.463 269.416 C 91.372 268.412,129.683 268.318,130.683 269.317 M285.029 281.608 C 282.706 285.522,280.688 288.920,280.545 289.159 C 280.374 289.444,278.946 288.705,276.421 287.024 C 274.297 285.610,272.495 284.453,272.416 284.453 C 272.048 284.453,266.746 292.893,266.929 293.189 C 267.043 293.374,270.110 295.501,273.743 297.915 C 283.943 304.690,283.506 304.864,292.041 290.673 C 295.469 284.975,298.273 280.161,298.273 279.975 C 298.273 279.676,289.862 274.456,289.423 274.483 C 289.329 274.488,287.351 277.695,285.029 281.608 M292.469 279.913 C 293.233 280.372,293.926 280.800,294.009 280.864 C 294.387 281.155,283.474 298.759,282.748 299.029 C 281.740 299.404,274.086 295.055,271.271 292.508 C 270.915 292.185,272.833 289.060,273.386 289.060 C 273.577 289.060,275.239 290.065,277.078 291.294 C 278.917 292.523,280.628 293.650,280.879 293.798 C 281.180 293.975,282.861 291.520,285.826 286.573 C 288.295 282.451,290.488 279.079,290.698 279.079 C 290.908 279.079,291.705 279.454,292.469 279.913 " stroke="none" fill="#a5adad" fill-rule="evenodd"></path><path id="path1" d="M0.000 200.192 L 0.000 400.384 200.000 400.384 L 400.000 400.384 400.000 200.192 L 400.000 0.000 200.000 0.000 L 0.000 0.000 0.000 200.192 M126.013 79.439 C 147.803 85.012,156.595 111.687,142.492 129.435 C 128.713 146.774,100.609 144.096,90.477 124.478 C 77.891 100.110,99.543 72.669,126.013 79.439 M113.436 81.926 C 86.652 87.157,81.225 122.248,105.264 134.760 C 124.412 144.725,147.214 129.969,146.163 108.291 C 145.356 91.631,129.432 78.803,113.436 81.926 M310.826 87.508 C 313.206 88.960,313.244 89.209,313.244 103.422 L 313.244 116.288 312.061 117.636 C 310.430 119.493,309.073 119.765,301.440 119.768 L 294.818 119.770 294.818 121.881 L 294.818 123.992 300.384 123.992 L 305.950 123.992 305.950 129.175 L 305.950 134.357 289.443 134.357 L 272.937 134.357 272.937 129.175 L 272.937 123.992 278.503 123.992 L 284.069 123.992 284.069 121.910 L 284.069 119.828 276.679 119.703 C 265.051 119.506,265.643 120.387,265.643 103.281 C 265.643 89.223,265.684 88.958,268.061 87.508 C 269.972 86.343,308.915 86.343,310.826 87.508 M269.349 90.529 C 268.463 91.509,268.380 114.558,269.258 115.762 C 269.765 116.455,270.407 116.515,278.471 116.623 L 287.140 116.739 287.140 121.901 L 287.140 127.063 281.574 127.063 L 276.008 127.063 276.008 129.175 L 276.008 131.286 289.443 131.286 L 302.879 131.286 302.879 129.175 L 302.879 127.063 297.313 127.063 L 291.747 127.063 291.747 121.901 L 291.747 116.739 300.415 116.623 C 308.479 116.515,309.122 116.455,309.628 115.762 C 310.563 114.482,310.419 91.320,309.471 90.463 C 308.335 89.435,270.283 89.498,269.349 90.529 M128.313 110.457 C 119.527 125.087,120.037 124.882,109.626 117.991 C 105.915 115.535,102.879 113.370,102.879 113.180 C 102.879 112.585,108.250 104.798,108.661 104.798 C 108.875 104.798,110.592 105.835,112.476 107.102 C 114.360 108.369,116.057 109.405,116.248 109.405 C 116.438 109.405,118.607 106.045,121.067 101.939 L 125.541 94.473 130.087 97.203 L 134.634 99.933 128.313 110.457 M122.105 106.347 C 119.702 110.366,117.595 113.740,117.425 113.845 C 117.254 113.951,115.377 112.880,113.252 111.466 C 108.980 108.621,109.342 108.624,107.688 111.414 L 107.066 112.463 112.295 115.924 C 117.750 119.535,118.493 119.823,119.482 118.714 C 120.075 118.049,130.134 101.446,130.134 101.132 C 130.134 100.904,127.144 99.040,126.777 99.040 C 126.612 99.040,124.509 102.328,122.105 106.347 M261.036 110.557 L 261.036 115.931 233.205 115.931 L 205.374 115.931 205.374 135.125 L 205.374 154.319 200.000 154.319 L 194.626 154.319 194.626 135.125 L 194.626 115.931 174.280 115.931 L 153.935 115.931 153.935 110.557 L 153.935 105.182 207.486 105.182 L 261.036 105.182 261.036 110.557 M157.006 110.557 L 157.006 112.860 177.348 112.860 L 197.690 112.860 197.789 131.958 L 197.889 151.056 200.000 151.056 L 202.111 151.056 202.211 131.958 L 202.310 112.860 230.138 112.860 L 257.965 112.860 257.965 110.557 L 257.965 108.253 207.486 108.253 L 157.006 108.253 157.006 110.557 M242.226 200.000 L 242.226 242.226 200.192 242.226 L 158.157 242.226 158.157 200.000 L 158.157 157.774 200.192 157.774 L 242.226 157.774 242.226 200.000 M161.228 200.000 L 161.228 239.159 200.096 239.061 L 238.964 238.964 238.964 200.000 L 238.964 161.036 200.096 160.939 L 161.228 160.841 161.228 200.000 M213.052 184.679 C 213.052 184.909,210.162 192.164,206.629 200.802 L 200.207 216.507 198.523 216.507 C 197.103 216.507,196.869 216.402,197.030 215.835 C 197.270 214.988,209.177 185.842,209.655 184.933 C 210.052 184.177,213.052 183.952,213.052 184.679 M182.726 192.100 L 182.726 193.797 176.975 196.995 C 173.813 198.753,171.222 200.295,171.217 200.421 C 171.213 200.548,173.800 201.884,176.967 203.392 L 182.726 206.133 182.726 207.864 L 182.726 209.595 174.472 205.473 C 163.841 200.164,163.848 200.995,174.376 195.031 C 178.863 192.490,182.577 190.409,182.630 190.407 C 182.682 190.405,182.726 191.167,182.726 192.100 M226.793 195.579 C 236.165 200.857,236.241 200.092,225.816 205.461 L 217.658 209.663 217.658 207.885 L 217.658 206.108 223.451 203.271 C 228.417 200.839,229.143 200.373,228.538 200.005 C 228.149 199.769,225.585 198.317,222.841 196.779 L 217.850 193.982 217.731 192.133 C 217.612 190.286,217.612 190.285,218.499 190.846 C 218.987 191.155,222.719 193.285,226.793 195.579 M205.374 264.683 L 205.374 284.069 225.912 284.069 L 246.449 284.069 246.449 289.443 L 246.449 294.818 192.706 294.818 L 138.964 294.818 138.964 289.443 L 138.964 284.069 166.795 284.069 L 194.626 284.069 194.626 264.683 L 194.626 245.298 200.000 245.298 L 205.374 245.298 205.374 264.683 M197.953 248.624 C 197.812 248.765,197.697 257.489,197.697 268.010 L 197.697 287.140 169.866 287.140 L 142.035 287.140 142.035 289.445 L 142.035 291.749 192.610 291.652 L 243.186 291.555 243.186 289.443 L 243.186 287.332 222.745 287.233 L 202.303 287.133 202.303 267.751 L 202.303 248.369 200.256 248.369 C 199.130 248.369,198.093 248.484,197.953 248.624 M290.019 259.285 C 318.199 266.920,321.543 305.566,295.103 318.052 C 281.613 324.423,264.573 319.798,256.175 307.486 C 239.906 283.634,262.279 251.770,290.019 259.285 M276.392 261.990 C 254.597 266.839,246.370 292.854,261.547 308.931 C 276.320 324.580,301.693 318.764,308.887 298.081 C 315.675 278.562,296.689 257.475,276.392 261.990 M132.867 267.133 L 134.357 268.624 134.357 281.958 L 134.357 295.292 132.867 296.782 L 131.376 298.273 123.654 298.273 L 115.931 298.273 115.931 300.576 L 115.931 302.879 121.497 302.879 L 127.063 302.879 127.063 308.061 L 127.063 313.244 110.557 313.244 L 94.050 313.244 94.050 308.072 L 94.050 302.900 99.712 302.793 L 105.374 302.687 105.374 300.576 L 105.374 298.464 97.697 298.273 C 86.056 297.982,86.760 299.025,86.758 282.035 C 86.756 263.761,83.980 265.646,110.890 265.644 L 131.376 265.643 132.867 267.133 M90.463 269.416 C 89.443 270.542,89.504 293.639,90.529 294.566 C 91.139 295.118,92.375 295.202,99.934 295.202 L 108.637 295.202 108.637 300.576 L 108.637 305.950 102.879 305.950 L 97.121 305.950 97.121 308.061 L 97.121 310.173 110.557 310.173 L 123.992 310.173 123.992 308.061 L 123.992 305.950 118.426 305.950 L 112.860 305.950 112.860 300.576 L 112.860 295.202 121.470 295.202 C 128.785 295.202,130.170 295.111,130.683 294.598 C 131.592 293.689,131.592 270.226,130.683 269.317 C 129.683 268.318,91.372 268.412,90.463 269.416 M293.934 277.054 C 296.320 278.474,298.273 279.788,298.273 279.975 C 298.273 280.161,295.469 284.975,292.041 290.673 C 283.506 304.864,283.943 304.690,273.743 297.915 C 270.110 295.501,267.043 293.374,266.929 293.189 C 266.746 292.893,272.048 284.453,272.416 284.453 C 272.495 284.453,274.297 285.610,276.421 287.024 C 278.946 288.705,280.374 289.444,280.545 289.159 C 280.688 288.920,282.706 285.522,285.029 281.608 C 287.351 277.695,289.329 274.488,289.423 274.483 C 289.518 274.477,291.548 275.634,293.934 277.054 M285.826 286.573 C 282.861 291.520,281.180 293.975,280.879 293.798 C 280.628 293.650,278.917 292.523,277.078 291.294 C 275.239 290.065,273.577 289.060,273.386 289.060 C 272.833 289.060,270.915 292.185,271.271 292.508 C 274.086 295.055,281.740 299.404,282.748 299.029 C 283.474 298.759,294.387 281.155,294.009 280.864 C 293.301 280.319,291.002 279.079,290.698 279.079 C 290.488 279.079,288.295 282.451,285.826 286.573 " stroke="none" fill="#fcfcfc" fill-rule="evenodd"></path></g></svg>