<svg id="svg" version="1.1" xmlns="http://www.w3.org/2000/svg" xmlns:xlink="http://www.w3.org/1999/xlink" width="400" height="400" viewBox="0, 0, 400,400"><g id="svgg"><path id="path0" d="M262.128 81.151 C 251.087 83.608,243.376 90.591,241.421 99.904 C 240.171 105.854,240.723 118.880,242.451 124.257 C 251.409 152.120,287.543 151.865,296.683 123.873 C 298.077 119.604,298.550 103.740,297.415 99.321 C 293.986 85.973,277.836 77.656,262.128 81.151 M277.469 85.684 C 285.708 87.894,292.002 93.986,293.389 101.095 C 294.267 105.595,293.712 119.263,292.503 122.915 C 285.340 144.544,258.230 147.132,248.312 127.133 C 244.365 119.174,243.700 103.716,247.007 96.782 C 251.461 87.441,265.266 82.412,277.469 85.684 M276.265 150.482 C 275.029 151.406,272.986 153.219,271.726 154.510 L 269.435 156.859 266.357 153.850 C 260.745 148.363,260.947 148.413,254.705 150.922 C 252.328 151.878,247.676 153.355,244.367 154.205 C 226.603 158.768,224.691 160.832,223.618 176.606 C 223.023 185.338,223.031 185.489,224.142 186.217 C 226.659 187.866,227.255 186.549,227.801 178.132 C 228.746 163.550,229.736 162.413,244.995 158.402 C 249.070 157.330,253.893 155.854,255.711 155.120 C 260.065 153.365,259.600 153.222,264.491 157.818 C 269.890 162.893,269.451 162.901,274.788 157.635 L 279.052 153.429 283.301 155.135 C 285.638 156.073,290.835 157.698,294.850 158.745 C 306.153 161.693,308.730 163.404,310.203 168.938 C 310.502 170.060,312.943 202.679,312.943 205.549 C 312.943 205.817,302.778 205.944,281.331 205.944 C 246.851 205.944,248.514 205.837,248.514 208.059 C 248.514 210.238,247.278 210.163,283.115 210.163 C 321.106 210.163,317.772 210.529,317.362 206.407 C 317.242 205.203,316.627 196.453,315.995 186.961 C 314.155 159.309,314.119 159.254,294.366 154.179 C 291.003 153.316,286.216 151.752,283.727 150.705 C 278.287 148.417,278.998 148.438,276.265 150.482 M84.464 190.218 C 81.444 192.060,81.690 187.370,81.689 242.992 L 81.687 292.504 82.550 293.772 C 84.662 296.875,82.162 296.632,113.163 296.748 L 140.748 296.851 140.748 300.103 L 140.748 303.356 136.625 303.364 C 128.053 303.382,124.593 306.859,124.327 315.724 L 124.180 320.614 161.475 320.614 L 198.771 320.614 198.561 316.057 C 198.145 307.044,194.986 303.750,186.385 303.362 L 181.975 303.164 181.864 300.000 L 181.752 296.836 208.916 296.836 L 236.079 296.836 237.790 295.973 C 239.043 295.341,239.734 294.649,240.369 293.390 L 241.236 291.671 241.136 242.508 L 241.035 193.345 240.233 192.262 C 239.792 191.667,238.860 190.791,238.163 190.316 L 236.895 189.453 161.305 189.455 C 86.554 189.456,85.700 189.465,84.464 190.218 M236.999 193.279 C 238.206 194.486,238.186 193.546,238.074 243.805 L 237.967 291.829 237.094 292.703 L 236.221 293.576 207.468 293.679 L 178.715 293.782 178.715 300.103 L 178.715 306.424 183.905 306.424 C 192.329 306.424,195.111 308.460,195.315 314.774 L 195.398 317.354 161.361 317.452 L 127.325 317.550 127.325 315.130 C 127.325 308.849,130.052 306.667,138.125 306.492 L 143.816 306.369 143.816 300.068 L 143.816 293.768 115.609 293.768 C 85.727 293.768,85.661 293.764,84.994 292.025 C 84.863 291.684,84.756 269.555,84.756 242.850 L 84.756 194.297 85.589 193.409 L 86.423 192.522 161.332 192.522 C 235.409 192.522,236.250 192.530,236.999 193.279 M173.974 222.734 C 173.827 222.971,155.373 267.663,154.649 269.534 C 154.502 269.914,154.896 270.008,156.273 269.918 L 158.091 269.799 167.828 246.258 C 173.183 233.311,177.565 222.654,177.565 222.576 C 177.565 222.294,174.153 222.444,173.974 222.734 M119.655 239.147 C 111.207 243.959,107.958 245.999,107.958 246.491 C 107.958 247.036,126.422 256.970,131.448 259.128 C 131.792 259.276,131.927 258.835,131.927 257.569 L 131.927 255.804 122.673 251.173 C 117.470 248.570,113.566 246.400,113.756 246.215 C 113.942 246.035,118.063 243.646,122.915 240.907 L 131.735 235.926 131.852 234.166 C 132.001 231.926,133.174 231.447,119.655 239.147 M184.541 234.169 L 184.660 236.022 193.553 241.022 C 198.444 243.771,202.562 246.140,202.703 246.286 C 202.844 246.432,198.799 248.633,193.714 251.178 L 184.468 255.804 184.468 257.558 L 184.468 259.313 196.453 253.213 C 203.044 249.859,208.486 246.862,208.545 246.554 C 208.641 246.059,203.654 243.105,186.075 233.243 L 184.422 232.315 184.541 234.169 M145.733 300.096 L 145.733 306.424 161.457 306.424 L 177.181 306.424 177.181 300.096 L 177.181 293.768 161.457 293.768 L 145.733 293.768 145.733 300.096 M174.033 300.000 L 173.921 303.164 161.361 303.265 L 148.802 303.366 148.802 300.101 L 148.802 296.836 161.473 296.836 L 174.144 296.836 174.033 300.000 " stroke="none" fill="#a5adad" fill-rule="evenodd"></path><path id="path1" d="M0.000 200.000 L 0.000 400.000 200.000 400.000 L 400.000 400.000 400.000 200.000 L 400.000 0.000 200.000 0.000 L 0.000 0.000 0.000 200.000 M279.386 81.857 C 288.816 84.677,295.256 90.916,297.415 99.321 C 298.550 103.740,298.077 119.604,296.683 123.873 C 287.543 151.865,251.409 152.120,242.451 124.257 C 239.768 115.911,240.203 100.829,243.309 94.535 C 248.836 83.334,265.154 77.599,279.386 81.857 M262.919 85.364 C 253.250 87.525,246.862 93.512,245.428 101.757 C 244.787 105.448,245.147 118.315,245.977 121.381 C 251.943 143.395,278.855 147.729,290.039 128.476 C 294.567 120.680,295.387 103.441,291.576 96.164 C 287.120 87.654,274.299 82.822,262.919 85.364 M283.727 150.705 C 286.216 151.752,291.003 153.316,294.366 154.179 C 314.119 159.254,314.155 159.309,315.995 186.961 C 316.627 196.453,317.242 205.203,317.362 206.407 C 317.772 210.529,321.106 210.163,283.115 210.163 C 247.278 210.163,248.514 210.238,248.514 208.059 C 248.514 205.837,246.851 205.944,281.331 205.944 C 302.778 205.944,312.943 205.817,312.943 205.549 C 312.943 202.679,310.502 170.060,310.203 168.938 C 308.730 163.404,306.153 161.693,294.850 158.745 C 290.835 157.698,285.638 156.073,283.301 155.135 L 279.052 153.429 274.788 157.635 C 269.451 162.901,269.890 162.893,264.491 157.818 C 259.600 153.222,260.065 153.365,255.711 155.120 C 253.893 155.854,249.070 157.330,244.995 158.402 C 229.736 162.413,228.746 163.550,227.801 178.132 C 227.255 186.549,226.659 187.866,224.142 186.217 C 223.031 185.489,223.023 185.338,223.618 176.606 C 224.691 160.832,226.603 158.768,244.367 154.205 C 247.676 153.355,252.328 151.878,254.705 150.922 C 260.947 148.413,260.745 148.363,266.357 153.850 L 269.435 156.859 271.726 154.510 C 274.025 152.154,278.212 148.802,278.856 148.802 C 279.046 148.802,281.237 149.658,283.727 150.705 M238.163 190.316 C 238.860 190.791,239.792 191.667,240.233 192.262 L 241.035 193.345 241.136 242.508 L 241.236 291.671 240.369 293.390 C 239.734 294.649,239.043 295.341,237.790 295.973 L 236.079 296.836 208.916 296.836 L 181.752 296.836 181.864 300.000 L 181.975 303.164 186.385 303.362 C 194.986 303.750,198.145 307.044,198.561 316.057 L 198.771 320.614 161.475 320.614 L 124.180 320.614 124.327 315.724 C 124.593 306.859,128.053 303.382,136.625 303.364 L 140.748 303.356 140.748 300.103 L 140.748 296.851 113.163 296.748 C 82.162 296.632,84.662 296.875,82.550 293.772 L 81.687 292.504 81.689 242.992 C 81.690 187.370,81.444 192.060,84.464 190.218 C 85.700 189.465,86.554 189.456,161.305 189.455 L 236.895 189.453 238.163 190.316 M85.589 193.409 L 84.756 194.297 84.756 242.850 C 84.756 269.555,84.863 291.684,84.994 292.025 C 85.661 293.764,85.727 293.768,115.609 293.768 L 143.816 293.768 143.816 300.068 L 143.816 306.369 138.125 306.492 C 130.052 306.667,127.325 308.849,127.325 315.130 L 127.325 317.550 161.361 317.452 L 195.398 317.354 195.315 314.774 C 195.111 308.460,192.329 306.424,183.905 306.424 L 178.715 306.424 178.715 300.103 L 178.715 293.782 207.468 293.679 L 236.221 293.576 237.094 292.703 L 237.967 291.829 238.074 243.805 C 238.186 193.546,238.206 194.486,236.999 193.279 C 236.250 192.530,235.409 192.522,161.332 192.522 L 86.423 192.522 85.589 193.409 M177.565 222.576 C 177.565 222.654,173.183 233.311,167.828 246.258 L 158.091 269.799 156.273 269.918 C 154.896 270.008,154.502 269.914,154.649 269.534 C 155.373 267.663,173.827 222.971,173.974 222.734 C 174.153 222.444,177.565 222.294,177.565 222.576 M131.852 234.166 L 131.735 235.926 122.915 240.907 C 118.063 243.646,113.942 246.035,113.756 246.215 C 113.566 246.400,117.470 248.570,122.673 251.173 L 131.927 255.804 131.927 257.569 C 131.927 258.835,131.792 259.276,131.448 259.128 C 126.422 256.970,107.958 247.036,107.958 246.491 C 107.958 245.908,130.409 232.605,131.661 232.446 C 131.830 232.424,131.917 233.198,131.852 234.166 M198.191 240.082 C 205.210 244.049,208.618 246.179,208.545 246.554 C 208.486 246.862,203.044 249.859,196.453 253.213 L 184.468 259.313 184.468 257.558 L 184.468 255.804 193.714 251.178 C 198.799 248.633,202.844 246.432,202.703 246.286 C 202.562 246.140,198.444 243.771,193.553 241.022 L 184.660 236.022 184.541 234.169 L 184.422 232.315 186.075 233.243 C 186.984 233.753,192.436 236.831,198.191 240.082 M177.181 300.096 L 177.181 306.424 161.457 306.424 L 145.733 306.424 145.733 300.096 L 145.733 293.768 161.457 293.768 L 177.181 293.768 177.181 300.096 M148.802 300.101 L 148.802 303.366 161.361 303.265 L 173.921 303.164 174.033 300.000 L 174.144 296.836 161.473 296.836 L 148.802 296.836 148.802 300.101 " stroke="none" fill="#fcfcfc" fill-rule="evenodd"></path></g></svg>