<svg stroke="trasparent" fill="currentColor"  width="24" height="24" viewBox="0 0 24 24" xmlns="http://www.w3.org/2000/svg">
    <g>
        <path d="m12 3 .265.004A9 9 0 0 1 21 12l-.004.265A9 9 0 1 1 12 3zm0 1.8a7.2 7.2 0 1 0 0 14.4l.242-.004A7.2 7.2 0 0 0 19.2 12l-.004-.242A7.2 7.2 0 0 0 12 4.8zm.419 3.848a.9.9 0 0 1 1.273.031l2.574 2.7a.9.9 0 0 1 .081.117l.056.082.043.089.027.082a.792.792 0 0 1 .027.17V12a.9.9 0 0 1-.072.351l-.05.104a.9.9 0 0 1-.139.184l-2.7 2.7a.902.902 0 0 1-1.278 0 .902.902 0 0 1 0-1.278l1.17-1.161H8.4a.9.9 0 1 1 0-1.8h5.094l-1.107-1.179a.9.9 0 0 1 .032-1.273z" fill-rule="evenodd"/>
    </g>
</svg>
