<svg width="24" height="24" viewBox="0 0 24 24" xmlns="http://www.w3.org/2000/svg" fill='currentColor'>
    <g>
        <path d="M18.778 11.838 13.999 5.42a.956.956 0 0 0-1.41-.16 1.121 1.121 0 0 0-.15 1.507l4.27 5.745-4.48 5.744a1.122 1.122 0 0 0 .13 1.508.975.975 0 0 0 1.41-.15l4.999-6.418c.306-.392.31-.96.01-1.358zM7 5.42a.978.978 0 0 0-1.434-.188c-.445.373-.523 1.06-.175 1.535l4.318 5.745-4.478 5.733a1.122 1.122 0 0 0 .13 1.509.96.96 0 0 0 .64.246c.297 0 .579-.14.77-.385l4.998-6.419a1.128 1.128 0 0 0 0-1.358L7 5.42z" fill-rule="evenodd"/>
    </g>
</svg>
